<?xml version="1.0" encoding="UTF-8"?>
<svg width="82px" height="74px" viewBox="0 0 82 74" version="1.1" xmlns="http://www.w3.org/2000/svg" xmlns:xlink="http://www.w3.org/1999/xlink">
    <!-- Generator: Sketch 60.1 (88133) - https://sketch.com -->
    <title>noun_filter_837954</title>
    <desc>Created with Sketch.</desc>
    <g id="Blog" stroke="none" stroke-width="1" fill="none" fill-rule="evenodd">
        <g id="Desktop-HD" transform="translate(-1225.000000, -338.000000)" fill="#444444" fill-rule="nonzero">
            <g id="noun_filter_837954" transform="translate(1225.000000, 338.000000)">
                <path d="M2,12 L51.2,12 C52.1,16.6 56.2,20 61,20 C65.8,20 69.9,16.6 70.8,12 L80,12 C81.1,12 82,11.1 82,10 C82,8.9 81.1,8 80,8 L70.8,8 C69.9,3.4 65.8,0 61,0 C56.2,0 52.1,3.4 51.2,8 L2,8 C0.9,8 0,8.9 0,10 C0,11.1 0.9,12 2,12 Z M61,4 C64.3,4 67,6.7 67,10 C67,13.3 64.3,16 61,16 C57.7,16 55,13.3 55,10 C55,6.7 57.7,4 61,4 Z M80,35 L30.8,35 C29.9,30.4 25.8,27 21,27 C16.2,27 12.1,30.4 11.2,35 L2,35 C0.9,35 0,35.9 0,37 C0,38.1 0.9,39 2,39 L11.2,39 C12.1,43.6 16.2,47 21,47 C25.8,47 29.9,43.6 30.8,39 L80,39 C81.1,39 82,38.1 82,37 C82,35.9 81.1,35 80,35 Z M21,43 C17.7,43 15,40.3 15,37 C15,33.7 17.7,31 21,31 C24.3,31 27,33.7 27,37 C27,40.3 24.3,43 21,43 Z M80,62 L50.8,62 C49.9,57.4 45.8,54 41,54 C36.2,54 32.1,57.4 31.2,62 L2,62 C0.9,62 0,62.9 0,64 C0,65.1 0.9,66 2,66 L31.2,66 C32.1,70.6 36.2,74 41,74 C45.8,74 49.9,70.6 50.8,66 L80,66 C81.1,66 82,65.1 82,64 C82,62.9 81.1,62 80,62 Z M41,70 C37.7,70 35,67.3 35,64 C35,60.7 37.7,58 41,58 C44.3,58 47,60.7 47,64 C47,67.3 44.3,70 41,70 Z" id="Shape"></path>
            </g>
        </g>
    </g>
</svg>